<svg width="142" height="37" viewBox="0 0 142 37" fill="none" xmlns="http://www.w3.org/2000/svg">
<path d="M1 24.8644H0.5C0.5 25.1405 0.723858 25.3644 1 25.3644V24.8644ZM9.01527 24.8644V25.3644C9.29141 25.3644 9.51527 25.1405 9.51527 24.8644H9.01527ZM9.01527 24.5814H9.51527C9.51527 24.3052 9.29141 24.0814 9.01527 24.0814V24.5814ZM9.01527 2.60354V3.10354C9.29141 3.10354 9.51527 2.87968 9.51527 2.60354H9.01527ZM9.01527 2.25767H9.51527C9.51527 1.98153 9.29141 1.75767 9.01527 1.75767V2.25767ZM1 2.25767V1.75767C0.723858 1.75767 0.5 1.98153 0.5 2.25767H1ZM1 2.54065H0.5C0.5 2.81679 0.723858 3.04065 1 3.04065V2.54065ZM1 24.5814V24.0814C0.723858 24.0814 0.5 24.3052 0.5 24.5814H1ZM29.2275 20.4625L29.6918 20.6481C29.7424 20.5217 29.7392 20.3801 29.683 20.2561C29.6268 20.1321 29.5224 20.0363 29.394 19.991L29.2275 20.4625ZM28.6932 20.2738L28.8596 19.8024C28.6094 19.714 28.3337 19.8366 28.2316 20.0816L28.6932 20.2738ZM27.6874 7.57134L28.1872 7.55522L28.1866 7.54362L27.6874 7.57134ZM27.7817 10.4954L27.2819 10.5115C27.2862 10.6461 27.3447 10.7732 27.4439 10.8642C27.5432 10.9551 27.675 11.0021 27.8094 10.9947L27.7817 10.4954ZM28.3474 10.464L28.3752 10.9632C28.6462 10.9482 28.8556 10.7197 28.8472 10.4484L28.3474 10.464ZM28.0645 1.3773L28.5643 1.36174C28.56 1.2223 28.4976 1.091 28.3922 0.99959C28.2868 0.908175 28.148 0.864951 28.0093 0.880363L28.0645 1.3773ZM27.7817 1.40874L27.7264 0.911804C27.4679 0.940534 27.2746 1.16264 27.2818 1.42262L27.7817 1.40874ZM27.8445 3.67256H28.3447L28.3443 3.65868L27.8445 3.67256ZM27.9388 4.58437L28.0762 5.06512C28.3355 4.99103 28.4893 4.72472 28.4239 4.46313L27.9388 4.58437ZM27.7188 4.64725L27.238 4.78457C27.2744 4.9121 27.36 5.01993 27.476 5.08433C27.5919 5.14874 27.7287 5.16445 27.8562 5.128L27.7188 4.64725ZM27.373 4.01842L27.7266 3.66492C27.7166 3.65491 27.7062 3.64533 27.6954 3.6362L27.373 4.01842ZM48.4524 24.2984H48.9524C48.9524 24.0223 48.7285 23.7984 48.4524 23.7984V24.2984ZM46.3464 2.38344L46.8396 2.46562C46.8442 2.43846 46.8464 2.41097 46.8464 2.38344H46.3464ZM46.3464 2.13191H46.8464C46.8464 1.99706 46.792 1.86793 46.6954 1.77382C46.5988 1.67971 46.4683 1.62859 46.3335 1.63207L46.3464 2.13191ZM41.4744 2.25767L41.4615 1.75784C41.1905 1.76484 40.9744 1.98656 40.9744 2.25767H41.4744ZM41.4744 2.54065H40.9744C40.9744 2.81679 41.1983 3.04065 41.4744 3.04065V2.54065ZM34.9993 1.3773H35.4993C35.4993 1.10116 35.2755 0.877303 34.9993 0.877303V1.3773ZM34.7479 1.3773V0.877303C34.4717 0.877303 34.2479 1.10116 34.2479 1.3773H34.7479ZM30.0644 3.16949V2.66949C29.7883 2.66949 29.5644 2.89334 29.5644 3.16949H30.0644ZM30.0644 3.45246H29.5644C29.5644 3.72861 29.7883 3.95246 30.0644 3.95246V3.45246ZM44.0519 18.7018V18.2018C43.8036 18.2018 43.5929 18.3839 43.5571 18.6296L44.0519 18.7018ZM44.3347 18.7018H44.8347C44.8347 18.4256 44.6109 18.2018 44.3347 18.2018V18.7018ZM44.209 24.8958L43.7146 24.8216C43.7109 24.8462 43.709 24.871 43.709 24.8958H44.209ZM44.209 25.1473H43.709C43.709 25.2976 43.7766 25.4398 43.893 25.5348C44.0094 25.6297 44.1624 25.6673 44.3095 25.6371L44.209 25.1473ZM48.4524 24.5814L48.4732 25.0809C48.741 25.0698 48.9524 24.8494 48.9524 24.5814H48.4524ZM54.0906 2.85507V2.35507C53.8144 2.35507 53.5906 2.57893 53.5906 2.85507H54.0906ZM54.6249 15.4947H54.1249C54.1249 15.7708 54.3488 15.9947 54.6249 15.9947V15.4947ZM54.0906 3.01228H53.5906C53.5906 3.12044 53.6257 3.22568 53.6905 3.31222L54.0906 3.01228ZM49.4072 24.8644H48.9072C48.9072 25.1405 49.131 25.3644 49.4072 25.3644V24.8644ZM57.1081 24.8644V25.3644C57.3842 25.3644 57.6081 25.1405 57.6081 24.8644H57.1081ZM57.1081 24.5814H57.6081C57.6081 24.3052 57.3842 24.0814 57.1081 24.0814V24.5814ZM54.6249 16.0606V15.5606C54.3488 15.5606 54.1249 15.7845 54.1249 16.0606H54.6249ZM49.4072 2.25767V1.75767C49.131 1.75767 48.9072 1.98153 48.9072 2.25767H49.4072ZM49.4072 2.54065H48.9072C48.9072 2.81679 49.131 3.04065 49.4072 3.04065V2.54065ZM49.4072 24.5814V24.0814C49.131 24.0814 48.9072 24.3052 48.9072 24.5814H49.4072ZM66.9243 19.2991L66.4787 19.0725C66.3998 19.2275 66.4072 19.4123 66.4981 19.5606C66.5891 19.7088 66.7505 19.7991 66.9243 19.7991V19.2991ZM76.1969 1.06288L76.6426 1.28951C76.7086 1.15979 76.7147 1.00777 76.6595 0.873127C76.6043 0.738488 76.4931 0.634592 76.3551 0.588559L76.1969 1.06288ZM76.0083 1L76.1665 0.525674C75.9341 0.4482 75.6799 0.550433 75.5658 0.767182L76.0083 1ZM71.9221 2.25767V1.75767C71.646 1.75767 71.4221 1.98153 71.4221 2.25767H71.9221ZM71.9221 2.57209H71.4221C71.4221 2.84823 71.646 3.07209 71.9221 3.07209V2.57209ZM72.8651 4.42716L72.3936 4.26079C72.3912 4.26737 72.3891 4.274 72.387 4.28066L72.8651 4.42716ZM66.0442 19.7079L65.597 19.4843C65.5623 19.5538 65.5442 19.6303 65.5442 19.7079H66.0442ZM66.0442 20.3996H65.5442C65.5442 20.6758 65.7681 20.8996 66.0442 20.8996V20.3996ZM75.5368 20.3996H76.0368C76.0368 20.1235 75.813 19.8996 75.5368 19.8996V20.3996ZM72.1107 24.5814V24.0814C71.8345 24.0814 71.6107 24.3052 71.6107 24.5814H72.1107ZM72.1107 24.8644H71.6107C71.6107 25.1405 71.8345 25.3644 72.1107 25.3644V24.8644ZM80.2517 24.8644V25.3644C80.5278 25.3644 80.7517 25.1405 80.7517 24.8644H80.2517ZM80.2517 24.5814H80.7517C80.7517 24.3052 80.5278 24.0814 80.2517 24.0814V24.5814ZM77.7685 20.3996V19.8996C77.4924 19.8996 77.2685 20.1235 77.2685 20.3996H77.7685ZM79.7488 20.3996V20.8996C80.0249 20.8996 80.2488 20.6758 80.2488 20.3996H79.7488ZM79.7488 19.2991H80.2488C80.2488 19.023 80.0249 18.7991 79.7488 18.7991V19.2991ZM77.7685 19.2991H77.2685C77.2685 19.5753 77.4924 19.7991 77.7685 19.7991V19.2991ZM77.7685 11.7531H78.2685C78.2685 11.477 78.0447 11.2531 77.7685 11.2531V11.7531ZM75.5368 11.7531V11.2531C75.2607 11.2531 75.0368 11.477 75.0368 11.7531H75.5368ZM75.5368 19.2991V19.7991C75.813 19.7991 76.0368 19.5753 76.0368 19.2991H75.5368ZM84.441 24.8644H83.941C83.941 25.1405 84.1649 25.3644 84.441 25.3644V24.8644ZM95.2852 24.8644V25.3644C95.5614 25.3644 95.7852 25.1405 95.7852 24.8644H95.2852ZM95.2852 24.5814H95.7852C95.7852 24.3052 95.5614 24.0814 95.2852 24.0814V24.5814ZM91.2933 13.7339L90.8492 13.5042C90.8125 13.5752 90.7933 13.654 90.7933 13.7339H91.2933ZM95.9453 4.74158L96.3894 4.97132L96.3908 4.96862L95.9453 4.74158ZM98.5856 2.50921V3.00921C98.8618 3.00921 99.0856 2.78535 99.0856 2.50921H98.5856ZM98.5856 2.25767H99.0856C99.0856 1.98153 98.8618 1.75767 98.5856 1.75767V2.25767ZM92.5192 2.25767V1.75767C92.243 1.75767 92.0192 1.98153 92.0192 2.25767H92.5192ZM92.5192 2.50921H92.0192C92.0192 2.78535 92.243 3.00921 92.5192 3.00921V2.50921ZM95.2852 4.77302L95.7294 5.0027L95.7325 4.99657L95.2852 4.77302ZM91.5133 12.0675L91.0692 11.8378L91.0661 11.844L91.5133 12.0675ZM91.1047 13.0737V13.5737C91.3491 13.5737 91.5577 13.3969 91.5979 13.1558L91.1047 13.0737ZM90.8847 13.0737L90.3915 13.1558C90.4317 13.3969 90.6403 13.5737 90.8847 13.5737V13.0737ZM90.4761 12.0675L90.0331 12.2997L90.039 12.3103L90.4761 12.0675ZM86.4213 4.33283L86.8641 4.10068L86.8625 4.09759L86.4213 4.33283ZM85.1326 2.57209H84.6326C84.6326 2.77896 84.7599 2.96447 84.953 3.03875L85.1326 2.57209ZM85.1326 2.50921V2.00921C84.8564 2.00921 84.6326 2.23307 84.6326 2.50921H85.1326ZM87.0814 2.50921V3.00921C87.3575 3.00921 87.5814 2.78535 87.5814 2.50921H87.0814ZM87.0814 2.25767H87.5814C87.5814 1.98153 87.3575 1.75767 87.0814 1.75767V2.25767ZM81.1406 2.25767V1.75767C80.8645 1.75767 80.6406 1.98153 80.6406 2.25767H81.1406ZM81.1406 2.50921H80.6406C80.6406 2.78535 80.8645 3.00921 81.1406 3.00921V2.50921ZM83.8753 4.71014L84.3189 4.47956L84.3186 4.47891L83.8753 4.71014ZM88.8102 14.2056H89.3102C89.3102 14.1253 89.2908 14.0462 89.2538 13.975L88.8102 14.2056ZM84.441 24.5814V24.0814C84.1649 24.0814 83.941 24.3052 83.941 24.5814H84.441ZM141 24.2984H141.5C141.5 24.0223 141.276 23.7984 141 23.7984V24.2984ZM138.894 2.38344L139.387 2.46562C139.392 2.43846 139.394 2.41097 139.394 2.38344H138.894ZM138.894 2.13191H139.394C139.394 1.99706 139.34 1.86793 139.243 1.77382C139.146 1.67971 139.016 1.62859 138.881 1.63207L138.894 2.13191ZM134.022 2.25767L134.009 1.75784C133.738 1.76484 133.522 1.98656 133.522 2.25767H134.022ZM134.022 2.54065H133.522C133.522 2.81679 133.746 3.04065 134.022 3.04065V2.54065ZM127.547 1.3773H128.047C128.047 1.10116 127.823 0.877303 127.547 0.877303V1.3773ZM127.295 1.3773V0.877303C127.019 0.877303 126.795 1.10116 126.795 1.3773H127.295ZM122.612 3.16949V2.66949C122.336 2.66949 122.112 2.89334 122.112 3.16949H122.612ZM122.612 3.45246H122.112C122.112 3.72861 122.336 3.95246 122.612 3.95246V3.45246ZM136.599 18.7018V18.2018C136.351 18.2018 136.141 18.3839 136.105 18.6296L136.599 18.7018ZM136.882 18.7018H137.382C137.382 18.4256 137.158 18.2018 136.882 18.2018V18.7018ZM136.757 24.8958L136.262 24.8216C136.258 24.8462 136.257 24.871 136.257 24.8958H136.757ZM136.757 25.1473H136.257C136.257 25.2976 136.324 25.4398 136.441 25.5348C136.557 25.6297 136.71 25.6673 136.857 25.6371L136.757 25.1473ZM141 24.5814L141.021 25.0809C141.289 25.0698 141.5 24.8494 141.5 24.5814H141ZM110.603 36C110.603 36.2761 110.826 36.5 111.103 36.5C111.379 36.5 111.603 36.2761 111.603 36H110.603ZM104.918 30.552C104.642 30.552 104.418 30.7759 104.418 31.052C104.418 31.3282 104.642 31.552 104.918 31.552V30.552ZM117.287 31.552C117.563 31.552 117.787 31.3282 117.787 31.052C117.787 30.7759 117.563 30.552 117.287 30.552V31.552ZM1 25.3644H9.01527V24.3644H1V25.3644ZM9.51527 24.8644V24.5814H8.51527V24.8644H9.51527ZM9.01527 24.0814H7.91513V25.0814H9.01527V24.0814ZM7.91513 24.0814C7.53595 24.0814 7.2768 24.0728 7.08947 24.044C6.90415 24.0154 6.85419 23.9759 6.84189 23.9644C6.83318 23.9562 6.79376 23.9175 6.76256 23.748C6.73033 23.573 6.71778 23.3225 6.71778 22.9464H5.71778C5.71778 23.3249 5.72881 23.6561 5.77909 23.9291C5.8304 24.2077 5.93242 24.4834 6.15946 24.6953C6.3829 24.9039 6.66299 24.9901 6.93736 25.0323C7.20973 25.0742 7.53994 25.0814 7.91513 25.0814V24.0814ZM6.71778 22.9464V4.23851H5.71778V22.9464H6.71778ZM6.71778 4.23851C6.71778 3.86245 6.73033 3.61191 6.76256 3.4369C6.79376 3.26745 6.83318 3.22867 6.84189 3.22055C6.85419 3.20906 6.90415 3.16947 7.08947 3.14095C7.2768 3.11212 7.53595 3.10354 7.91513 3.10354V2.10354C7.53994 2.10354 7.20973 2.11067 6.93736 2.15259C6.66299 2.19481 6.3829 2.28099 6.15946 2.48959C5.93242 2.70156 5.8304 2.9772 5.77909 3.25579C5.72881 3.52884 5.71778 3.85997 5.71778 4.23851H6.71778ZM7.91513 3.10354H9.01527V2.10354H7.91513V3.10354ZM9.51527 2.60354V2.25767H8.51527V2.60354H9.51527ZM9.01527 1.75767H1V2.75767H9.01527V1.75767ZM0.5 2.25767V2.54065H1.5V2.25767H0.5ZM1 3.04065H2.10013V2.04065H1V3.04065ZM2.10013 3.04065C2.47964 3.04065 2.73618 3.04927 2.91993 3.07792C3.10129 3.10619 3.14418 3.14474 3.15153 3.15183C3.157 3.15712 3.19543 3.19435 3.22508 3.36774C3.25544 3.54532 3.26605 3.79763 3.26605 4.17563H4.26605C4.26605 3.79901 4.25702 3.46965 4.21077 3.19919C4.1638 2.92453 4.06864 2.64734 3.84623 2.43254C3.62569 2.21954 3.3464 2.13232 3.07396 2.08985C2.8039 2.04775 2.47501 2.04065 2.10013 2.04065V3.04065ZM3.26605 4.17563V22.9464H4.26605V4.17563H3.26605ZM3.26605 22.9464C3.26605 23.3244 3.25544 23.5767 3.22508 23.7543C3.19543 23.9277 3.157 23.9649 3.15153 23.9702C3.14418 23.9773 3.10129 24.0158 2.91993 24.0441C2.73618 24.0728 2.47964 24.0814 2.10013 24.0814V25.0814C2.47501 25.0814 2.8039 25.0743 3.07396 25.0322C3.3464 24.9897 3.62569 24.9025 3.84623 24.6895C4.06864 24.4747 4.1638 24.1975 4.21077 23.9228C4.25702 23.6524 4.26605 23.323 4.26605 22.9464H3.26605ZM2.10013 24.0814H1V25.0814H2.10013V24.0814ZM0.5 24.5814V24.8644H1.5V24.5814H0.5ZM10.151 13.4824C10.151 17.078 11.2859 20.1165 13.3131 22.2602C15.3427 24.4064 18.2296 25.6159 21.6523 25.6159V24.6159C18.4742 24.6159 15.8605 23.4986 14.0396 21.5731C12.2164 19.6451 11.151 16.8669 11.151 13.4824H10.151ZM21.6523 25.6159C25.0995 25.6159 28.3392 24.0306 29.6918 20.6481L28.7633 20.2768C27.6013 23.1827 24.806 24.6159 21.6523 24.6159V25.6159ZM29.394 19.991L28.8596 19.8024L28.5267 20.7453L29.0611 20.934L29.394 19.991ZM28.2316 20.0816C27.2235 22.5018 24.5396 24.0499 21.7152 24.0499V25.0499C24.8629 25.0499 27.9626 23.3281 29.1547 20.4661L28.2316 20.0816ZM21.7152 24.0499C19.1694 24.0499 17.2629 23.1065 15.9729 21.3035C14.6637 19.4737 13.9485 16.7011 13.9485 12.9793H12.9485C12.9485 16.8037 13.6791 19.8163 15.1596 21.8853C16.6592 23.9811 18.886 25.0499 21.7152 25.0499V24.0499ZM13.9485 12.9793C13.9485 9.65615 14.6301 7.1706 15.8745 5.52678C17.1019 3.90543 18.9239 3.04065 21.3694 3.04065V2.04065C18.6601 2.04065 16.5216 3.01522 15.0772 4.92321C13.6498 6.80873 12.9485 9.54253 12.9485 12.9793H13.9485ZM21.3694 3.04065C22.8122 3.04065 24.2455 3.55266 25.3308 4.39061C26.4165 5.22878 27.1195 6.36289 27.1881 7.59907L28.1866 7.54362C28.0981 5.95003 27.198 4.5688 25.9419 3.59906C24.6856 2.62911 23.0385 2.04065 21.3694 2.04065V3.04065ZM27.1876 7.58746L27.2819 10.5115L28.2814 10.4793L28.1871 7.55523L27.1876 7.58746ZM27.8094 10.9947L28.3752 10.9632L28.3197 9.96476L27.7539 9.9962L27.8094 10.9947ZM28.8472 10.4484L28.5643 1.36174L27.5648 1.39286L27.8477 10.4796L28.8472 10.4484ZM28.0093 0.880363L27.7264 0.911804L27.8369 1.90568L28.1198 1.87424L28.0093 0.880363ZM27.2818 1.42262L27.3447 3.68644L28.3443 3.65868L28.2815 1.39486L27.2818 1.42262ZM27.3445 3.67256C27.3445 4.04454 27.3779 4.40229 27.4537 4.7056L28.4239 4.46313C28.374 4.26337 28.3445 3.99229 28.3445 3.67256H27.3445ZM27.8014 4.10362L27.5814 4.1665L27.8562 5.128L28.0762 5.06512L27.8014 4.10362ZM28.1996 4.50993C28.1215 4.23671 27.9619 3.9002 27.7266 3.66492L27.0194 4.37192C27.0985 4.45105 27.1903 4.61761 27.238 4.78457L28.1996 4.50993ZM27.6954 3.6362C25.9916 2.19922 23.8302 1.50614 21.6209 1.50614V2.50614C23.6235 2.50614 25.5484 3.13361 27.0507 4.40063L27.6954 3.6362ZM21.6209 1.50614C18.2002 1.50614 15.3214 2.69845 13.299 4.81684C11.2786 6.93308 10.151 9.93307 10.151 13.4824H11.151C11.151 10.146 12.2079 7.40784 14.0223 5.50738C15.8346 3.60908 18.4408 2.50614 21.6209 2.50614V1.50614ZM48.4524 23.7984H47.918V24.7984H48.4524V23.7984ZM47.918 23.7984C47.5408 23.7984 47.2833 23.7879 47.0986 23.7571C46.917 23.7268 46.8659 23.686 46.8512 23.6717C46.8381 23.659 46.7973 23.6134 46.7657 23.4396C46.7332 23.2609 46.7207 23.0077 46.7207 22.632H45.7207C45.7207 23.0109 45.7318 23.3432 45.7818 23.6185C45.8327 23.8987 45.9334 24.1753 46.156 24.3906C46.377 24.6043 46.6559 24.6971 46.9341 24.7434C47.209 24.7893 47.5409 24.7984 47.918 24.7984V23.7984ZM46.7207 22.632V4.04986H45.7207V22.632H46.7207ZM46.7207 4.04986C46.7207 3.50339 46.751 2.99749 46.8396 2.46562L45.8532 2.30127C45.7532 2.9013 45.7207 3.46442 45.7207 4.04986H46.7207ZM46.8464 2.38344V2.13191H45.8464V2.38344H46.8464ZM46.3335 1.63207L41.4615 1.75784L41.4873 2.75751L46.3593 2.63174L46.3335 1.63207ZM40.9744 2.25767V2.54065H41.9744V2.25767H40.9744ZM41.4744 3.04065H42.0087V2.04065H41.4744V3.04065ZM42.0087 3.04065C42.386 3.04065 42.6435 3.05118 42.8282 3.08199C43.0098 3.11225 43.0609 3.15307 43.0756 3.16735C43.0887 3.18002 43.1295 3.22565 43.1611 3.39941C43.1936 3.57812 43.2061 3.83134 43.2061 4.20707H44.2061C44.2061 3.82819 44.195 3.49581 44.145 3.22058C44.0941 2.9404 43.9934 2.66375 43.7708 2.44846C43.5498 2.23479 43.2708 2.14198 42.9927 2.0956C42.7178 2.04977 42.3859 2.04065 42.0087 2.04065V3.04065ZM43.2061 4.20707V16.5323H44.2061V4.20707H43.2061ZM43.2061 16.5323C43.2061 18.8658 42.6564 20.761 41.7451 22.0576C40.8425 23.3417 39.5819 24.0499 38.0797 24.0499V25.0499C39.9408 25.0499 41.4934 24.1547 42.5632 22.6326C43.6242 21.123 44.2061 19.0094 44.2061 16.5323H43.2061ZM38.0797 24.0499C37.3268 24.0499 36.7083 23.7403 36.2612 23.1213C35.8012 22.4845 35.4993 21.4841 35.4993 20.0852H34.4993C34.4993 21.6104 34.8261 22.8423 35.4505 23.7069C36.0879 24.5892 37.0096 25.0499 38.0797 25.0499V24.0499ZM34.9993 0.877303H34.7479V1.8773H34.9993V0.877303ZM34.2479 1.3773V1.50307H35.2479V1.3773H34.2479ZM34.2479 1.50307C34.2479 1.87792 34.0323 2.15422 33.5677 2.364C33.0918 2.57887 32.448 2.66949 31.8561 2.66949V3.66949C32.5215 3.66949 33.3235 3.57146 33.9792 3.2754C34.6462 2.97424 35.2479 2.41734 35.2479 1.50307H34.2479ZM31.8561 2.66949H30.0644V3.66949H31.8561V2.66949ZM29.5644 3.16949V3.45246H30.5644V3.16949H29.5644ZM30.0644 3.95246H31.5418V2.95246H30.0644V3.95246ZM31.5418 3.95246C31.7446 3.95246 31.8395 4.00944 31.8836 4.05357C31.9277 4.09772 31.9847 4.19269 31.9847 4.39572H32.9847C32.9847 4.00136 32.8688 3.6247 32.5908 3.34657C32.3127 3.06842 31.9361 2.95246 31.5418 2.95246V3.95246ZM31.9847 4.39572V20.3682H32.9847V4.39572H31.9847ZM31.9847 20.3682C31.9847 22.0393 32.5953 23.3717 33.6617 24.2784C34.7176 25.1762 36.1713 25.6159 37.7968 25.6159V24.6159C36.3419 24.6159 35.1395 24.2223 34.3095 23.5166C33.49 22.8198 32.9847 21.7783 32.9847 20.3682H31.9847ZM37.7968 25.6159C39.3838 25.6159 40.9097 25.1071 42.1259 23.9722C43.3399 22.8395 44.2044 21.1215 44.5466 18.7739L43.5571 18.6296C43.2393 20.8097 42.4536 22.2987 41.4437 23.2411C40.436 24.1814 39.1645 24.6159 37.7968 24.6159V25.6159ZM44.0519 19.2018H44.3347V18.2018H44.0519V19.2018ZM43.8347 18.7018V23.1036H44.8347V18.7018H43.8347ZM43.8347 23.1036C43.8347 23.6509 43.8043 24.2228 43.7146 24.8216L44.7035 24.9699C44.8023 24.3111 44.8347 23.6882 44.8347 23.1036H43.8347ZM43.709 24.8958V25.1473H44.709V24.8958H43.709ZM44.3095 25.6371C45.5232 25.3881 47.0025 25.1422 48.4732 25.0809L48.4316 24.0818C46.8848 24.1463 45.3466 24.4035 44.1085 24.6575L44.3095 25.6371ZM48.9524 24.5814V24.2984H47.9524V24.5814H48.9524ZM54.0906 3.35507H56.3852V2.35507H54.0906V3.35507ZM56.3852 3.35507C58.2727 3.35507 59.6502 3.88513 60.5591 4.829C61.4709 5.77591 61.983 7.2138 61.983 9.17488H62.983C62.983 7.04852 62.4264 5.3265 61.2794 4.13537C60.1295 2.94119 58.4581 2.35507 56.3852 2.35507V3.35507ZM61.983 9.17488C61.983 11.1526 61.4705 12.5896 60.5598 13.5319C59.6517 14.4714 58.2746 14.9947 56.3852 14.9947V15.9947C58.4562 15.9947 60.128 15.4175 61.2788 14.2268C62.4269 13.039 62.983 11.316 62.983 9.17488H61.983ZM56.3852 14.9947H54.6249V15.9947H56.3852V14.9947ZM55.1249 15.4947V4.96167H54.1249V15.4947H55.1249ZM55.1249 4.96167C55.1249 4.18338 54.9586 3.33646 54.4906 2.71234L53.6905 3.31222C53.977 3.69423 54.1249 4.29364 54.1249 4.96167H55.1249ZM54.5906 3.01228V2.85507H53.5906V3.01228H54.5906ZM49.4072 25.3644H57.1081V24.3644H49.4072V25.3644ZM57.6081 24.8644V24.5814H56.6081V24.8644H57.6081ZM57.1081 24.0814H56.3223V25.0814H57.1081V24.0814ZM56.3223 24.0814C55.9451 24.0814 55.6876 24.0708 55.5028 24.04C55.3213 24.0098 55.2702 23.969 55.2554 23.9547C55.2423 23.942 55.2015 23.8964 55.1699 23.7226C55.1374 23.5439 55.1249 23.2907 55.1249 22.915H54.1249C54.1249 23.2938 54.136 23.6262 54.186 23.9014C54.237 24.1816 54.3376 24.4583 54.5603 24.6736C54.7812 24.8872 55.0602 24.98 55.3383 25.0264C55.6133 25.0723 55.9451 25.0814 56.3223 25.0814V24.0814ZM55.1249 22.915V16.0606H54.1249V22.915H55.1249ZM54.6249 16.5606H57.3281V15.5606H54.6249V16.5606ZM57.3281 16.5606C59.78 16.5606 61.8771 15.8488 63.3691 14.5514C64.8675 13.2484 65.7177 11.3863 65.7177 9.17488H64.7177C64.7177 11.1137 63.9805 12.6945 62.7129 13.7968C61.4388 14.9047 59.5911 15.5606 57.3281 15.5606V16.5606ZM65.7177 9.17488C65.7177 6.96374 64.8678 5.09438 63.3703 3.78367C61.8787 2.47816 59.7814 1.75767 57.3281 1.75767V2.75767C59.5897 2.75767 61.4372 3.42063 62.7117 4.53614C63.9802 5.64645 64.7177 7.23569 64.7177 9.17488H65.7177ZM57.3281 1.75767H49.4072V2.75767H57.3281V1.75767ZM48.9072 2.25767V2.54065H49.9072V2.25767H48.9072ZM49.4072 3.04065H50.5073V2.04065H49.4072V3.04065ZM50.5073 3.04065C50.8848 3.04065 51.1397 3.05122 51.3208 3.08181C51.4983 3.11178 51.5425 3.15143 51.5524 3.16141C51.5624 3.1714 51.6021 3.21565 51.632 3.39321C51.6626 3.57444 51.6732 3.82941 51.6732 4.20707H52.6732C52.6732 3.83012 52.6641 3.49948 52.6181 3.22678C52.5715 2.95039 52.4775 2.67237 52.2596 2.45441C52.0417 2.23643 51.7637 2.14245 51.4874 2.09578C51.2147 2.04973 50.8841 2.04065 50.5073 2.04065V3.04065ZM51.6732 4.20707V22.915H52.6732V4.20707H51.6732ZM51.6732 22.915C51.6732 23.2926 51.6626 23.5476 51.632 23.7288C51.6021 23.9064 51.5624 23.9506 51.5524 23.9606C51.5425 23.9706 51.4983 24.0102 51.3208 24.0402C51.1397 24.0708 50.8848 24.0814 50.5073 24.0814V25.0814C50.8841 25.0814 51.2147 25.0723 51.4874 25.0262C51.7637 24.9796 52.0417 24.8856 52.2596 24.6676C52.4775 24.4497 52.5715 24.1716 52.6181 23.8952C52.6641 23.6225 52.6732 23.2919 52.6732 22.915H51.6732ZM50.5073 24.0814H49.4072V25.0814H50.5073V24.0814ZM48.9072 24.5814V24.8644H49.9072V24.5814H48.9072ZM67.37 19.5258L76.6426 1.28951L75.7512 0.836264L66.4787 19.0725L67.37 19.5258ZM76.3551 0.588559L76.1665 0.525674L75.8502 1.47433L76.0387 1.53721L76.3551 0.588559ZM75.5658 0.767182C75.4233 1.03811 75.2971 1.2092 75.1643 1.32826C75.0369 1.44247 74.8801 1.52962 74.6445 1.59518C74.1322 1.73771 73.3482 1.75767 71.9221 1.75767V2.75767C73.2935 2.75767 74.2382 2.7462 74.9125 2.55859C75.2702 2.45908 75.5712 2.30649 75.8318 2.07286C76.087 1.84411 76.279 1.55928 76.4508 1.23282L75.5658 0.767182ZM71.4221 2.25767V2.57209H72.4221V2.25767H71.4221ZM71.9221 3.07209C72.2742 3.07209 72.4735 3.13053 72.5668 3.18357C72.5878 3.19549 72.6004 3.2055 72.6075 3.21199C72.611 3.21521 72.6132 3.21764 72.6145 3.21914C72.6157 3.22063 72.6162 3.22141 72.6162 3.22148C72.6163 3.22153 72.6161 3.22122 72.6158 3.22067C72.6156 3.22012 72.6155 3.21976 72.6155 3.2198C72.6155 3.21985 72.6157 3.22071 72.616 3.22258C72.6162 3.22448 72.6165 3.22768 72.6165 3.23237H73.6165C73.6165 2.82487 73.3964 2.50503 73.0612 2.31434C72.7537 2.13942 72.3558 2.07209 71.9221 2.07209V3.07209ZM72.6165 3.23237C72.6165 3.44144 72.57 3.7606 72.3936 4.26079L73.3366 4.59353C73.5373 4.0247 73.6165 3.58926 73.6165 3.23237H72.6165ZM72.387 4.28066C70.4857 10.4853 65.708 19.2622 65.597 19.4843L66.4915 19.9314C66.491 19.9325 66.4949 19.9249 66.5082 19.8998C66.5199 19.8779 66.5359 19.8478 66.5564 19.8093C66.5973 19.7327 66.655 19.6246 66.7274 19.4881C66.8723 19.2152 67.0761 18.8287 67.324 18.3508C67.8197 17.395 68.4919 16.073 69.2214 14.5603C70.6773 11.5413 72.3728 7.74009 73.3431 4.57366L72.387 4.28066ZM65.5442 19.7079V20.3996H66.5442V19.7079H65.5442ZM66.0442 20.8996H75.5368V19.8996H66.0442V20.8996ZM75.0368 20.3996V22.632H76.0368V20.3996H75.0368ZM75.0368 22.632C75.0368 23.0705 75.0224 23.373 74.983 23.5901C74.9445 23.8024 74.8917 23.876 74.8583 23.9084C74.8236 23.9422 74.7448 23.9944 74.5255 24.0313C74.3028 24.0689 73.9964 24.0814 73.5566 24.0814V25.0814C73.9969 25.0814 74.3781 25.0703 74.6917 25.0174C75.0087 24.964 75.315 24.859 75.5552 24.6255C75.7969 24.3907 75.9092 24.087 75.9669 23.7686C76.0238 23.4552 76.0368 23.0738 76.0368 22.632H75.0368ZM73.5566 24.0814H72.1107V25.0814H73.5566V24.0814ZM71.6107 24.5814V24.8644H72.6107V24.5814H71.6107ZM72.1107 25.3644H80.2517V24.3644H72.1107V25.3644ZM80.7517 24.8644V24.5814H79.7517V24.8644H80.7517ZM80.2517 24.0814H79.7173V25.0814H80.2517V24.0814ZM79.7173 24.0814C79.2773 24.0814 78.9734 24.0688 78.7542 24.0315C78.5389 23.9948 78.4666 23.9436 78.4365 23.9135C78.4063 23.8833 78.3551 23.8109 78.3184 23.5954C78.2811 23.3761 78.2685 23.0722 78.2685 22.632H77.2685C77.2685 23.0721 77.2796 23.452 77.3326 23.7633C77.3863 24.0784 77.4922 24.3833 77.7292 24.6205C77.9663 24.8576 78.2712 24.9636 78.5862 25.0173C78.8975 25.0703 79.2773 25.0814 79.7173 25.0814V24.0814ZM78.2685 22.632V20.3996H77.2685V22.632H78.2685ZM77.7685 20.8996H79.7488V19.8996H77.7685V20.8996ZM80.2488 20.3996V19.2991H79.2488V20.3996H80.2488ZM79.7488 18.7991H77.7685V19.7991H79.7488V18.7991ZM78.2685 19.2991V11.7531H77.2685V19.2991H78.2685ZM77.7685 11.2531H75.5368V12.2531H77.7685V11.2531ZM75.0368 11.7531V19.2991H76.0368V11.7531H75.0368ZM75.5368 18.7991H66.9243V19.7991H75.5368V18.7991ZM84.441 25.3644H95.2852V24.3644H84.441V25.3644ZM95.7852 24.8644V24.5814H94.7852V24.8644H95.7852ZM95.2852 24.0814H92.9592V25.0814H95.2852V24.0814ZM92.9592 24.0814C92.5817 24.0814 92.3268 24.0708 92.1457 24.0402C91.9682 24.0102 91.9241 23.9706 91.9141 23.9606C91.9041 23.9506 91.8644 23.9064 91.8345 23.7288C91.8039 23.5476 91.7933 23.2926 91.7933 22.915H90.7933C90.7933 23.2919 90.8024 23.6225 90.8484 23.8952C90.8951 24.1716 90.989 24.4497 91.2069 24.6676C91.4248 24.8856 91.7028 24.9796 91.9792 25.0262C92.2518 25.0723 92.5824 25.0814 92.9592 25.0814V24.0814ZM91.7933 22.915V13.7339H90.7933V22.915H91.7933ZM91.7374 13.9637L96.3894 4.97132L95.5012 4.51184L90.8492 13.5042L91.7374 13.9637ZM96.3908 4.96862C96.8078 4.15046 97.0785 3.65373 97.3406 3.35179C97.4631 3.21055 97.5686 3.13109 97.6677 3.0839C97.7649 3.03755 97.8835 3.00921 98.0513 3.00921V2.00921C97.7633 2.00921 97.4929 2.05947 97.2375 2.18114C96.9839 2.30196 96.7731 2.47994 96.5853 2.69634C96.2266 3.10971 95.9001 3.72916 95.4998 4.51454L96.3908 4.96862ZM98.0513 3.00921H98.5856V2.00921H98.0513V3.00921ZM99.0856 2.50921V2.25767H98.0856V2.50921H99.0856ZM98.5856 1.75767H92.5192V2.75767H98.5856V1.75767ZM92.0192 2.25767V2.50921H93.0192V2.25767H92.0192ZM92.5192 3.00921H94.4051V2.00921H92.5192V3.00921ZM94.4051 3.00921C94.8409 3.00921 95.0446 3.09579 95.1293 3.1598C95.1896 3.20525 95.2253 3.26381 95.2253 3.38958H96.2253C96.2253 3.01228 96.0881 2.63065 95.7319 2.36169C95.4002 2.11127 94.9437 2.00921 94.4051 2.00921V3.00921ZM95.2253 3.38958C95.2253 3.66885 95.0896 4.04601 94.838 4.54947L95.7325 4.99657C95.9837 4.49389 96.2253 3.9278 96.2253 3.38958H95.2253ZM94.8411 4.54336L91.0692 11.8379L91.9575 12.2972L95.7294 5.00268L94.8411 4.54336ZM91.0661 11.844C90.9825 12.0111 90.8834 12.2259 90.8003 12.4255C90.7252 12.6058 90.6382 12.8311 90.6115 12.9915L91.5979 13.1558C91.5975 13.1583 91.5989 13.1499 91.6053 13.1274C91.6114 13.1065 91.6201 13.0794 91.6317 13.0462C91.6549 12.9797 91.6864 12.8989 91.7234 12.81C91.7975 12.6323 91.887 12.4383 91.9606 12.2911L91.0661 11.844ZM91.1047 12.5737H90.8847V13.5737H91.1047V12.5737ZM91.3779 12.9915C91.3518 12.8346 91.2673 12.6052 91.1905 12.4171C91.1076 12.2139 91.0048 11.9898 90.9132 11.8248L90.039 12.3103C90.1045 12.4283 90.1903 12.6129 90.2646 12.7949C90.3011 12.8844 90.3327 12.9681 90.3562 13.0373C90.3679 13.0719 90.3769 13.1006 90.3832 13.1231C90.3899 13.1472 90.3917 13.157 90.3915 13.1558L91.3779 12.9915ZM90.9189 11.8354L86.8641 4.10068L85.9784 4.56498L90.0332 12.2997L90.9189 11.8354ZM86.8625 4.09759C86.6129 3.62953 86.3802 3.20384 86.1535 2.87426C85.9381 2.56131 85.6685 2.24257 85.3121 2.10544L84.953 3.03875C85.0052 3.05882 85.1285 3.14882 85.3297 3.44113C85.5193 3.71681 85.7267 4.09289 85.9801 4.56807L86.8625 4.09759ZM85.6326 2.57209V2.50921H84.6326V2.57209H85.6326ZM85.1326 3.00921H87.0814V2.00921H85.1326V3.00921ZM87.5814 2.50921V2.25767H86.5814V2.50921H87.5814ZM87.0814 1.75767H81.1406V2.75767H87.0814V1.75767ZM80.6406 2.25767V2.50921H81.6406V2.25767H80.6406ZM81.1406 3.00921H81.8007V2.00921H81.1406V3.00921ZM81.8007 3.00921C82.0764 3.00921 82.2757 3.10521 82.5141 3.38894C82.7814 3.70705 83.0454 4.20019 83.4319 4.94137L84.3186 4.47891C83.9508 3.77376 83.6333 3.16643 83.2797 2.74567C82.8973 2.29051 82.4365 2.00921 81.8007 2.00921V3.00921ZM83.4316 4.94071L88.3665 14.4361L89.2538 13.975L84.3189 4.47956L83.4316 4.94071ZM88.3102 14.2056V22.915H89.3102V14.2056H88.3102ZM88.3102 22.915C88.3102 23.2926 88.2996 23.5476 88.269 23.7288C88.239 23.9064 88.1994 23.9506 88.1894 23.9606C88.1794 23.9706 88.1352 24.0102 87.9578 24.0402C87.7766 24.0708 87.5218 24.0814 87.1442 24.0814V25.0814C87.5211 25.0814 87.8516 25.0723 88.1243 25.0262C88.4007 24.9796 88.6787 24.8856 88.8966 24.6676C89.1145 24.4497 89.2084 24.1716 89.255 23.8952C89.3011 23.6225 89.3102 23.2919 89.3102 22.915H88.3102ZM87.1442 24.0814H84.441V25.0814H87.1442V24.0814ZM83.941 24.5814V24.8644H84.941V24.5814H83.941ZM141 23.7984H140.466V24.7984H141V23.7984ZM140.466 23.7984C140.088 23.7984 139.831 23.7879 139.646 23.7571C139.465 23.7268 139.414 23.686 139.399 23.6717C139.386 23.659 139.345 23.6134 139.313 23.4396C139.281 23.2609 139.268 23.0077 139.268 22.632H138.268C138.268 23.0109 138.279 23.3432 138.329 23.6185C138.38 23.8987 138.481 24.1753 138.704 24.3906C138.925 24.6043 139.204 24.6971 139.482 24.7434C139.757 24.7893 140.088 24.7984 140.466 24.7984V23.7984ZM139.268 22.632V4.04986H138.268V22.632H139.268ZM139.268 4.04986C139.268 3.50339 139.299 2.99749 139.387 2.46562L138.401 2.30127C138.301 2.9013 138.268 3.46442 138.268 4.04986H139.268ZM139.394 2.38344V2.13191H138.394V2.38344H139.394ZM138.881 1.63207L134.009 1.75784L134.035 2.75751L138.907 2.63174L138.881 1.63207ZM133.522 2.25767V2.54065H134.522V2.25767H133.522ZM134.022 3.04065H134.556V2.04065H134.022V3.04065ZM134.556 3.04065C134.934 3.04065 135.191 3.05118 135.376 3.08199C135.557 3.11225 135.608 3.15307 135.623 3.16735C135.636 3.18002 135.677 3.22565 135.709 3.39941C135.741 3.57812 135.754 3.83135 135.754 4.20707H136.754C136.754 3.82819 136.743 3.49581 136.693 3.22058C136.642 2.94039 136.541 2.66375 136.318 2.44846C136.097 2.23479 135.818 2.14198 135.54 2.0956C135.265 2.04977 134.934 2.04065 134.556 2.04065V3.04065ZM135.754 4.20707V16.5323H136.754V4.20707H135.754ZM135.754 16.5323C135.754 18.8658 135.204 20.761 134.293 22.0576C133.39 23.3417 132.129 24.0499 130.627 24.0499V25.0499C132.488 25.0499 134.041 24.1547 135.111 22.6326C136.172 21.123 136.754 19.0094 136.754 16.5323H135.754ZM130.627 24.0499C129.874 24.0499 129.256 23.7403 128.809 23.1213C128.349 22.4845 128.047 21.4841 128.047 20.0852H127.047C127.047 21.6104 127.374 22.8423 127.998 23.7069C128.635 24.5892 129.557 25.0499 130.627 25.0499V24.0499ZM127.547 0.877303H127.295V1.8773H127.547V0.877303ZM126.795 1.3773V1.50307H127.795V1.3773H126.795ZM126.795 1.50307C126.795 1.87792 126.58 2.15422 126.115 2.364C125.639 2.57887 124.996 2.66949 124.404 2.66949V3.66949C125.069 3.66949 125.871 3.57146 126.527 3.2754C127.194 2.97424 127.795 2.41734 127.795 1.50307H126.795ZM124.404 2.66949H122.612V3.66949H124.404V2.66949ZM122.112 3.16949V3.45246H123.112V3.16949H122.112ZM122.612 3.95246H124.089V2.95246H122.612V3.95246ZM124.089 3.95246C124.292 3.95246 124.387 4.00944 124.431 4.05357C124.475 4.09772 124.532 4.19269 124.532 4.39572H125.532C125.532 4.00136 125.416 3.6247 125.138 3.34657C124.86 3.06842 124.484 2.95246 124.089 2.95246V3.95246ZM124.532 4.39572V20.3682H125.532V4.39572H124.532ZM124.532 20.3682C124.532 22.0393 125.143 23.3717 126.209 24.2784C127.265 25.1762 128.719 25.6159 130.344 25.6159V24.6159C128.89 24.6159 127.687 24.2223 126.857 23.5166C126.038 22.8198 125.532 21.7783 125.532 20.3682H124.532ZM130.344 25.6159C131.931 25.6159 133.457 25.1071 134.674 23.9722C135.887 22.8395 136.752 21.1215 137.094 18.7739L136.105 18.6296C135.787 20.8097 135.001 22.2987 133.991 23.2411C132.984 24.1814 131.712 24.6159 130.344 24.6159V25.6159ZM136.599 19.2018H136.882V18.2018H136.599V19.2018ZM136.382 18.7018V23.1036H137.382V18.7018H136.382ZM136.382 23.1036C136.382 23.6509 136.352 24.2228 136.262 24.8216L137.251 24.9699C137.35 24.3111 137.382 23.6882 137.382 23.1036H136.382ZM136.257 24.8958V25.1473H137.257V24.8958H136.257ZM136.857 25.6371C138.071 25.3881 139.55 25.1422 141.021 25.0809L140.979 24.0818C139.432 24.1463 137.894 24.4035 136.656 24.6575L136.857 25.6371ZM141.5 24.5814V24.2984H140.5V24.5814H141.5ZM121.735 13.7287C121.735 19.6027 116.974 24.3644 111.103 24.3644V25.3644C117.527 25.3644 122.735 20.1548 122.735 13.7287H121.735ZM111.103 24.3644C105.231 24.3644 100.47 19.6027 100.47 13.7287H99.4702C99.4702 20.1548 104.678 25.3644 111.103 25.3644V24.3644ZM100.47 13.7287C100.47 7.85465 105.231 3.09305 111.103 3.09305V2.09305C104.678 2.09305 99.4702 7.30265 99.4702 13.7287H100.47ZM111.103 3.09305C116.974 3.09305 121.735 7.85465 121.735 13.7287H122.735C122.735 7.30265 117.527 2.09305 111.103 2.09305V3.09305ZM110.603 24.8644V36H111.603V24.8644H110.603ZM104.918 31.552H117.287V30.552H104.918V31.552ZM35.4993 20.0852V1.3773H34.4993V20.0852H35.4993ZM128.047 20.0852V1.3773H127.047V20.0852H128.047Z" fill="white"/>
</svg>
