<svg width="106" height="18" viewBox="0 0 106 18" fill="none" xmlns="http://www.w3.org/2000/svg">
<path d="M9 0L11.0206 6.21885H17.5595L12.2694 10.0623L14.2901 16.2812L9 12.4377L3.70993 16.2812L5.73056 10.0623L0.440492 6.21885H6.97937L9 0Z" fill="#80D1FF"/>
<path d="M31 0L33.0206 6.21885H39.5595L34.2694 10.0623L36.2901 16.2812L31 12.4377L25.7099 16.2812L27.7306 10.0623L22.4405 6.21885H28.9794L31 0Z" fill="#80D1FF"/>
<path d="M53 0L55.0206 6.21885H61.5595L56.2694 10.0623L58.2901 16.2812L53 12.4377L47.7099 16.2812L49.7306 10.0623L44.4405 6.21885H50.9794L53 0Z" fill="#80D1FF"/>
<path d="M75 1.61804L76.5451 6.37336L76.6574 6.71885H77.0206H82.0207L77.9755 9.6578L77.6817 9.87132L77.7939 10.2168L79.339 14.9721L75.2939 12.0332L75 11.8197L74.7061 12.0332L70.661 14.9721L72.2061 10.2168L72.3183 9.87132L72.0245 9.6578L67.9793 6.71885H72.9794H73.3426L73.4549 6.37336L75 1.61804Z" stroke="#80D1FF"/>
<path d="M97 1.61804L98.5451 6.37336L98.6574 6.71885H99.0206H104.021L99.9755 9.6578L99.6817 9.87132L99.7939 10.2168L101.339 14.9721L97.2939 12.0332L97 11.8197L96.7061 12.0332L92.661 14.9721L94.2061 10.2168L94.3183 9.87132L94.0245 9.6578L89.9793 6.71885H94.9794H95.3426L95.4549 6.37336L97 1.61804Z" stroke="#80D1FF"/>
</svg>
