<svg width="13" height="8" viewBox="0 0 13 8" fill="none" xmlns="http://www.w3.org/2000/svg">
<path d="M12.3289 6.2484C11.9467 5.79054 11.4969 5.39977 11.0713 4.98482C10.6873 4.6108 10.6631 4.39382 10.9718 3.96213C11.3086 3.49098 11.6709 3.0379 12.0108 2.56887C12.3281 2.13054 12.6524 1.6934 12.8194 1.16857C12.9253 0.834672 12.8316 0.687188 12.4888 0.628726C12.4297 0.618495 12.3687 0.617964 12.3085 0.617964L10.2745 0.615572C10.024 0.611852 9.88554 0.720937 9.79693 0.942694C9.67733 1.24245 9.55401 1.54193 9.41153 1.83119C9.08825 2.48703 8.72719 3.12094 8.22099 3.65773C8.10937 3.77612 7.98591 3.92573 7.79939 3.86408C7.56605 3.77904 7.49727 3.39505 7.50113 3.26524L7.49913 0.920505C7.4539 0.585544 7.37953 0.436199 7.04654 0.371094L4.93366 0.371492C4.65162 0.371492 4.51021 0.480312 4.35961 0.656495C4.27274 0.758273 4.24653 0.824308 4.42506 0.858057C4.77575 0.924491 4.9733 1.15117 5.02572 1.50234C5.1098 2.06344 5.10395 2.6268 5.05552 3.19017C5.04129 3.35466 5.01295 3.51875 4.94763 3.67235C4.84546 3.91377 4.68049 3.96293 4.46378 3.81438C4.26755 3.67992 4.12972 3.49018 3.99482 3.29965C3.48809 2.58455 3.08379 1.81338 2.75413 1.00302C2.65887 0.768902 2.49457 0.626999 2.24619 0.623145C1.63596 0.613446 1.02559 0.611852 0.415349 0.623677C0.0481694 0.630586 -0.0613195 0.80863 0.0882133 1.14107C0.752862 2.61764 1.49268 4.05315 2.45839 5.36084C2.95421 6.03196 3.52348 6.62442 4.2589 7.04429C5.09237 7.52022 5.98957 7.66345 6.93453 7.61934C7.377 7.59861 7.50991 7.48368 7.5304 7.04322C7.54423 6.74188 7.57842 6.44226 7.72729 6.17147C7.87336 5.90573 8.0946 5.85511 8.34963 6.0204C8.47721 6.10318 8.58471 6.20854 8.68621 6.31962C8.93526 6.59173 9.17539 6.87209 9.43388 7.13503C9.75809 7.46455 10.1422 7.6592 10.6251 7.61947L12.4945 7.61987C12.7957 7.60021 12.9519 7.23136 12.7789 6.8956C12.6575 6.66043 12.4981 6.45103 12.3289 6.2484Z" fill="white"/>
</svg>
