<?xml version="1.0" encoding="utf-8"?><svg xmlns="http://www.w3.org/2000/svg" xmlns:xlink="http://www.w3.org/1999/xlink"><symbol fill="none" viewBox="0 0 32 32" id="burger" xmlns="http://www.w3.org/2000/svg"><path d="M5 16h22M5 8h22M5 24h22" stroke="currentColor" stroke-linecap="round" stroke-linejoin="round"/></symbol><symbol fill="none" viewBox="0 0 46 46" id="close" xmlns="http://www.w3.org/2000/svg"><path d="m12.035 11.75 22.5 22.5M34.535 11.75l-22.5 22.5" stroke="currentColor" stroke-linecap="round" stroke-linejoin="round"/></symbol><symbol fill="none" viewBox="0 0 32 32" id="count_minus" xmlns="http://www.w3.org/2000/svg"><path d="M16 28c6.627 0 12-5.373 12-12S22.627 4 16 4 4 9.373 4 16s5.373 12 12 12Z" stroke="#818181" stroke-miterlimit="10"/><path d="M11 16h10" stroke="currentColor" stroke-linecap="round" stroke-linejoin="round"/></symbol><symbol fill="none" viewBox="0 0 32 32" id="count_plus" xmlns="http://www.w3.org/2000/svg"><path d="M16 28c6.627 0 12-5.373 12-12S22.627 4 16 4 4 9.373 4 16s5.373 12 12 12Z" stroke="#818181" stroke-miterlimit="10"/><path d="M11 16h10M16 11v10" stroke="currentColor" stroke-linecap="round" stroke-linejoin="round"/></symbol><symbol fill="none" viewBox="0 0 12 10" id="gal" xmlns="http://www.w3.org/2000/svg"><path fill-rule="evenodd" clip-rule="evenodd" d="M10.983.767a.767.767 0 0 1 .137 1.009L6.435 8.694c-.506.748-1.47.904-2.153.348L1.016 6.385A.767.767 0 0 1 .88 5.375c.217-.32.63-.386.922-.148L5.07 7.885c.097.08.235.057.307-.05L10.062.917c.216-.32.63-.387.921-.15Z" fill="#fff"/></symbol><symbol fill="none" viewBox="0 0 142 37" id="logo" xmlns="http://www.w3.org/2000/svg"><path d="M1 24.864H.5a.5.5 0 0 0 .5.5v-.5Zm8.015 0v.5a.5.5 0 0 0 .5-.5h-.5Zm0-.283h.5a.5.5 0 0 0-.5-.5v.5Zm0-21.977v.5a.5.5 0 0 0 .5-.5h-.5Zm0-.346h.5a.5.5 0 0 0-.5-.5v.5ZM1 2.258v-.5a.5.5 0 0 0-.5.5H1Zm0 .283H.5a.5.5 0 0 0 .5.5v-.5Zm0 22.04v-.5a.5.5 0 0 0-.5.5H1Zm28.227-4.119.465.186a.5.5 0 0 0-.298-.657l-.166.471Zm-.534-.188.167-.472a.5.5 0 0 0-.628.28l.461.192ZM27.687 7.57l.5-.016v-.011l-.5.027Zm.095 2.924-.5.017a.5.5 0 0 0 .527.483l-.027-.5Zm.565-.031.028.5a.5.5 0 0 0 .472-.516l-.5.016Zm-.283-9.087.5-.015A.5.5 0 0 0 28.01.88l.055.497Zm-.282.032-.056-.497a.5.5 0 0 0-.444.51l.5-.013Zm.063 2.264h.5v-.014l-.5.014Zm.094.911.137.481a.5.5 0 0 0 .348-.602l-.485.121Zm-.22.063-.481.138a.5.5 0 0 0 .618.343l-.137-.48Zm-.346-.629.354-.353a.504.504 0 0 0-.032-.029l-.322.382Zm21.08 20.28h.5a.5.5 0 0 0-.5-.5v.5ZM46.345 2.383l.494.083a.492.492 0 0 0 .006-.083h-.5Zm0-.251h.5a.5.5 0 0 0-.512-.5l.012.5Zm-4.872.126-.012-.5a.5.5 0 0 0-.488.5h.5Zm0 .283h-.5a.5.5 0 0 0 .5.5v-.5ZM35 1.377h.5a.5.5 0 0 0-.5-.5v.5Zm-.251 0v-.5a.5.5 0 0 0-.5.5h.5ZM30.064 3.17v-.5a.5.5 0 0 0-.5.5h.5Zm0 .283h-.5a.5.5 0 0 0 .5.5v-.5Zm13.988 15.25v-.5a.5.5 0 0 0-.495.428l.495.072Zm.283 0h.5a.5.5 0 0 0-.5-.5v.5Zm-.126 6.194-.494-.074a.499.499 0 0 0-.006.074h.5Zm0 .251h-.5a.5.5 0 0 0 .6.49l-.1-.49Zm4.243-.566.021.5a.5.5 0 0 0 .48-.5h-.5Zm5.639-21.726v-.5a.5.5 0 0 0-.5.5h.5Zm.534 12.64h-.5a.5.5 0 0 0 .5.5v-.5ZM54.09 3.012h-.5a.5.5 0 0 0 .1.3l.4-.3Zm-4.684 21.852h-.5a.5.5 0 0 0 .5.5v-.5Zm7.701 0v.5a.5.5 0 0 0 .5-.5h-.5Zm0-.283h.5a.5.5 0 0 0-.5-.5v.5Zm-2.483-8.52v-.5a.5.5 0 0 0-.5.5h.5ZM49.407 2.258v-.5a.5.5 0 0 0-.5.5h.5Zm0 .283h-.5a.5.5 0 0 0 .5.5v-.5Zm0 22.04v-.5a.5.5 0 0 0-.5.5h.5ZM66.924 19.3l-.445-.226a.5.5 0 0 0 .445.726v-.5Zm9.273-18.236.446.227a.5.5 0 0 0-.288-.701l-.158.474ZM76.008 1l.159-.474a.5.5 0 0 0-.601.241l.442.233Zm-4.086 1.258v-.5a.5.5 0 0 0-.5.5h.5Zm0 .314h-.5a.5.5 0 0 0 .5.5v-.5Zm.943 1.855-.471-.166a.472.472 0 0 0-.007.02l.478.146Zm-6.82 15.28-.448-.223a.5.5 0 0 0-.053.224h.5Zm0 .693h-.5a.5.5 0 0 0 .5.5v-.5Zm9.492 0h.5a.5.5 0 0 0-.5-.5v.5ZM72.11 24.58v-.5a.5.5 0 0 0-.5.5h.5Zm0 .283h-.5a.5.5 0 0 0 .5.5v-.5Zm8.14 0v.5a.5.5 0 0 0 .5-.5h-.5Zm0-.283h.5a.5.5 0 0 0-.5-.5v.5ZM77.769 20.4v-.5a.5.5 0 0 0-.5.5h.5Zm1.98 0v.5a.5.5 0 0 0 .5-.5h-.5Zm0-1.1h.5a.5.5 0 0 0-.5-.5v.5Zm-1.98 0h-.5a.5.5 0 0 0 .5.5v-.5Zm0-7.547h.5a.5.5 0 0 0-.5-.5v.5Zm-2.231 0v-.5a.5.5 0 0 0-.5.5h.5Zm0 7.546v.5a.5.5 0 0 0 .5-.5h-.5Zm8.904 5.565h-.5a.5.5 0 0 0 .5.5v-.5Zm10.844 0v.5a.5.5 0 0 0 .5-.5h-.5Zm0-.283h.5a.5.5 0 0 0-.5-.5v.5Zm-3.992-10.847-.444-.23a.5.5 0 0 0-.056.23h.5Zm4.652-8.992.444.23.002-.003-.446-.227Zm2.64-2.233v.5a.5.5 0 0 0 .5-.5h-.5Zm0-.251h.5a.5.5 0 0 0-.5-.5v.5Zm-6.066 0v-.5a.5.5 0 0 0-.5.5h.5Zm0 .251h-.5a.5.5 0 0 0 .5.5v-.5Zm2.766 2.264.444.23.004-.006-.448-.224Zm-3.772 7.295-.444-.23-.003.006.447.224Zm-.408 1.006v.5a.5.5 0 0 0 .493-.418l-.493-.082Zm-.22 0-.494.082a.5.5 0 0 0 .494.418v-.5Zm-.409-1.006-.443.232.006.01.437-.242Zm-4.055-7.735.443-.232-.002-.003-.44.235Zm-1.288-1.76h-.5a.5.5 0 0 0 .32.466l.18-.467Zm0-.064v-.5a.5.5 0 0 0-.5.5h.5Zm1.948 0v.5a.5.5 0 0 0 .5-.5h-.5Zm0-.251h.5a.5.5 0 0 0-.5-.5v.5Zm-5.94 0v-.5a.5.5 0 0 0-.5.5h.5Zm0 .251h-.5a.5.5 0 0 0 .5.5v-.5Zm2.734 2.201.444-.23v-.001l-.444.231Zm4.935 9.496h.5a.5.5 0 0 0-.056-.231l-.444.23ZM84.441 24.58v-.5a.5.5 0 0 0-.5.5h.5ZM141 24.298h.5a.5.5 0 0 0-.5-.5v.5Zm-2.106-21.915.493.083a.453.453 0 0 0 .007-.083h-.5Zm0-.251h.5a.498.498 0 0 0-.513-.5l.013.5Zm-4.872.126-.013-.5a.5.5 0 0 0-.487.5h.5Zm0 .283h-.5a.5.5 0 0 0 .5.5v-.5Zm-6.475-1.164h.5a.5.5 0 0 0-.5-.5v.5Zm-.252 0v-.5a.5.5 0 0 0-.5.5h.5Zm-4.683 1.792v-.5a.5.5 0 0 0-.5.5h.5Zm0 .283h-.5a.5.5 0 0 0 .5.5v-.5Zm13.987 15.25v-.5a.5.5 0 0 0-.494.428l.494.072Zm.283 0h.5a.5.5 0 0 0-.5-.5v.5Zm-.125 6.194-.495-.074a.461.461 0 0 0-.005.074h.5Zm0 .251h-.5a.498.498 0 0 0 .6.49l-.1-.49Zm4.243-.566.021.5a.5.5 0 0 0 .479-.5h-.5ZM110.603 36a.5.5 0 1 0 1 0h-1Zm-5.685-5.448a.5.5 0 0 0 0 1v-1Zm12.369 1a.5.5 0 0 0 0-1v1ZM1 25.364h8.015v-1H1v1Zm8.515-.5v-.283h-1v.283h1Zm-.5-.783h-1.1v1h1.1v-1Zm-1.1 0c-.38 0-.638-.008-.826-.037-.185-.029-.235-.068-.247-.08-.009-.008-.048-.046-.08-.216-.032-.175-.044-.425-.044-.802h-1c0 .379.01.71.061.983.051.279.153.554.38.766.224.209.504.295.778.337.273.042.603.05.978.05v-1Zm-1.197-1.135V4.24h-1v18.707h1Zm0-18.707c0-.377.012-.627.045-.802.03-.17.07-.208.079-.216.012-.012.062-.052.247-.08a5.9 5.9 0 0 1 .826-.037v-1c-.375 0-.705.007-.978.049-.274.042-.554.128-.778.337-.227.212-.329.487-.38.766-.05.273-.061.604-.061.983h1Zm1.197-1.135h1.1v-1h-1.1v1Zm1.6-.5v-.346h-1v.346h1Zm-.5-.846H1v1h8.015v-1Zm-8.515.5v.283h1v-.283h-1Zm.5.783h1.1v-1H1v1Zm1.1 0c.38 0 .636.008.82.037.181.028.224.067.232.074.005.005.043.042.073.216.03.177.041.43.041.808h1c0-.377-.009-.706-.055-.977-.047-.274-.142-.552-.365-.766-.22-.213-.5-.3-.772-.343a6.663 6.663 0 0 0-.974-.05v1Zm1.166 1.135v18.77h1V4.176h-1Zm0 18.77c0 .378-.01.63-.04.808-.03.174-.069.21-.074.216-.008.007-.05.046-.232.074-.184.029-.44.037-.82.037v1c.375 0 .704-.007.974-.049.272-.042.552-.13.772-.343.223-.214.318-.491.365-.766.046-.27.055-.6.055-.977h-1ZM2.1 24.081H1v1h1.1v-1Zm-1.6.5v.283h1v-.283h-1Zm9.651-11.099c0 3.596 1.135 6.634 3.162 8.778 2.03 2.146 4.917 3.356 8.34 3.356v-1c-3.179 0-5.792-1.117-7.613-3.043-1.824-1.928-2.889-4.706-2.889-8.09h-1Zm11.501 12.134c3.447 0 6.687-1.585 8.04-4.968l-.929-.371c-1.162 2.906-3.957 4.339-7.11 4.339v1Zm7.742-5.625-.534-.189-.333.943.534.189.333-.943Zm-1.162.09c-1.008 2.42-3.692 3.969-6.517 3.969v1c3.148 0 6.248-1.722 7.44-4.584l-.923-.384Zm-6.517 3.969c-2.546 0-4.452-.944-5.742-2.747-1.31-1.83-2.025-4.602-2.025-8.324h-1c0 3.825.731 6.837 2.212 8.906 1.5 2.096 3.726 3.165 6.555 3.165v-1Zm-7.767-11.07c0-3.324.682-5.81 1.926-7.453 1.228-1.622 3.05-2.486 5.495-2.486v-1c-2.709 0-4.847.974-6.292 2.882-1.427 1.886-2.129 4.62-2.129 8.056h1Zm7.421-9.94c1.443 0 2.877.513 3.962 1.35 1.085.839 1.788 1.973 1.857 3.21l.999-.056c-.089-1.594-.989-2.975-2.245-3.945a7.596 7.596 0 0 0-4.573-1.558v1Zm5.819 4.547.094 2.925 1-.033-.095-2.924-1 .032Zm.621 3.408.566-.032-.055-.998-.566.031.055.999Zm1.038-.547-.283-9.086-1 .03.284 9.088 1-.032ZM28.01.88l-.283.032.11.994.284-.032-.11-.994Zm-.727.543.063 2.263 1-.027-.063-2.264-1 .028Zm.063 2.25c0 .372.033.73.109 1.033l.97-.243c-.05-.2-.08-.47-.08-.79h-1Zm.456.43-.22.064.275.961.22-.063-.275-.961Zm.399.407c-.078-.273-.238-.61-.473-.845l-.708.707c.08.08.171.246.219.413l.962-.275Zm-.505-.874c-1.703-1.437-3.865-2.13-6.074-2.13v1c2.003 0 3.927.628 5.43 1.895l.644-.765Zm-6.074-2.13c-3.42 0-6.3 1.192-8.322 3.31-2.02 2.117-3.148 5.117-3.148 8.666h1c0-3.336 1.057-6.074 2.871-7.975 1.813-1.898 4.419-3 7.599-3v-1Zm26.831 22.292h-.534v1h.534v-1Zm-.534 0c-.377 0-.635-.01-.82-.04-.181-.031-.232-.072-.247-.086-.013-.013-.054-.059-.085-.232-.033-.18-.045-.432-.045-.808h-1c0 .379.01.711.06.986.052.28.152.557.375.773.221.213.5.306.778.352.275.046.607.055.984.055v-1Zm-1.197-1.166V4.05h-1v18.582h1Zm0-18.582c0-.547.03-1.053.119-1.584l-.987-.165c-.1.6-.132 1.163-.132 1.749h1Zm.125-1.667v-.251h-1v.251h1Zm-.512-.75-4.873.125.026 1 4.872-.126-.026-1Zm-5.36.625v.283h1v-.283h-1Zm.5.783h.535v-1h-.535v1Zm.535 0c.377 0 .635.01.82.041.18.03.232.071.247.085.013.013.053.059.085.232.033.18.045.432.045.808h1c0-.379-.011-.711-.061-.986-.05-.28-.152-.557-.374-.773-.221-.213-.5-.306-.778-.352a6.265 6.265 0 0 0-.984-.055v1Zm1.197 1.166v12.325h1V4.207h-1Zm0 12.325c0 2.334-.55 4.229-1.46 5.526-.904 1.284-2.164 1.992-3.666 1.992v1c1.86 0 3.413-.895 4.483-2.417 1.061-1.51 1.643-3.624 1.643-6.1h-1ZM38.08 24.05c-.753 0-1.372-.31-1.819-.929-.46-.636-.762-1.637-.762-3.036h-1c0 1.525.327 2.757.951 3.622.638.882 1.56 1.343 2.63 1.343v-1ZM35 .877h-.252v1h.251v-1Zm-.752.5v.126h1v-.126h-1Zm0 .126c0 .375-.216.651-.68.861-.476.215-1.12.305-1.712.305v1c.666 0 1.468-.098 2.123-.394.667-.3 1.269-.858 1.269-1.772h-1ZM31.856 2.67h-1.792v1h1.792v-1Zm-2.292.5v.283h1V3.17h-1Zm.5.783h1.478v-1h-1.478v1Zm1.478 0c.203 0 .297.057.342.102.044.044.1.139.1.342h1c0-.395-.115-.771-.393-1.05-.278-.278-.655-.394-1.05-.394v1Zm.443.444v15.972h1V4.396h-1Zm0 15.972c0 1.671.61 3.004 1.677 3.91 1.056.898 2.51 1.338 4.135 1.338v-1c-1.455 0-2.657-.394-3.487-1.1-.82-.696-1.325-1.738-1.325-3.148h-1Zm5.812 5.248c1.587 0 3.113-.509 4.329-1.644 1.214-1.133 2.078-2.85 2.42-5.198l-.989-.144c-.318 2.18-1.103 3.669-2.113 4.611-1.008.94-2.28 1.375-3.647 1.375v1Zm6.255-6.414h.283v-1h-.283v1Zm-.217-.5v4.402h1v-4.402h-1Zm0 4.402c0 .547-.03 1.119-.12 1.718l.988.148c.1-.659.132-1.282.132-1.866h-1Zm-.126 1.792v.251h1v-.251h-1Zm.6.741c1.214-.249 2.694-.495 4.164-.556l-.041-1c-1.547.065-3.085.323-4.324.576l.202.98Zm4.643-1.056v-.283h-1v.283h1Zm5.139-21.226h2.294v-1h-2.294v1Zm2.294 0c1.888 0 3.265.53 4.174 1.474.912.947 1.424 2.385 1.424 4.346h1c0-2.126-.557-3.849-1.704-5.04-1.15-1.194-2.82-1.78-4.894-1.78v1Zm5.598 5.82c0 1.978-.512 3.415-1.423 4.357-.908.94-2.285 1.463-4.175 1.463v1c2.071 0 3.743-.577 4.894-1.768 1.148-1.188 1.704-2.911 1.704-5.052h-1Zm-5.598 5.82h-1.76v1h1.76v-1Zm-1.26.5V4.962h-1v10.533h1Zm0-10.533c0-.779-.166-1.626-.634-2.25l-.8.6c.286.382.434.982.434 1.65h1Zm-.534-1.95v-.157h-1v.157h1Zm-5.184 22.352h7.701v-1h-7.7v1Zm8.201-.5v-.283h-1v.283h1Zm-.5-.783h-.786v1h.786v-1Zm-.786 0c-.377 0-.634-.01-.82-.041-.18-.03-.232-.071-.247-.085-.013-.013-.053-.059-.085-.232-.033-.18-.045-.432-.045-.808h-1c0 .379.011.711.061.986.051.28.152.557.374.773.221.213.5.306.778.352.275.046.607.055.984.055v-1Zm-1.197-1.166v-6.854h-1v6.854h1Zm-.5-6.354h2.703v-1h-2.703v1Zm2.703 0c2.452 0 4.55-.712 6.041-2.01 1.499-1.303 2.349-3.165 2.349-5.376h-1c0 1.939-.738 3.52-2.005 4.622-1.274 1.108-3.122 1.764-5.385 1.764v1Zm8.39-7.386c0-2.211-.85-4.08-2.348-5.391-1.491-1.306-3.589-2.026-6.042-2.026v1c2.262 0 4.11.663 5.384 1.778 1.268 1.11 2.006 2.7 2.006 4.639h1Zm-8.39-7.417h-7.92v1h7.92v-1Zm-8.42.5v.283h1v-.283h-1Zm.5.783h1.1v-1h-1.1v1Zm1.1 0c.377 0 .632.01.813.04.177.03.221.07.231.08.01.01.05.055.08.232.03.181.041.436.041.814h1c0-.377-.009-.708-.055-.98-.047-.277-.14-.555-.358-.773-.218-.218-.496-.312-.773-.358a6.17 6.17 0 0 0-.98-.055v1Zm1.165 1.166v18.708h1V4.207h-1Zm0 18.708c0 .378-.01.633-.041.814-.03.177-.07.222-.08.232-.01.01-.054.05-.231.08-.181.03-.436.04-.814.04v1c.377 0 .708-.009.98-.055.277-.046.555-.14.773-.358.218-.218.312-.496.358-.773.046-.273.055-.603.055-.98h-1Zm-1.166 1.166h-1.1v1h1.1v-1Zm-1.6.5v.283h1v-.283h-1Zm18.463-5.055L76.643 1.29 75.75.836 66.48 19.073l.891.453ZM76.355.589l-.189-.063-.316.948.189.063.316-.948Zm-.79.178c-.142.271-.268.442-.4.561a1.234 1.234 0 0 1-.52.267c-.513.143-1.297.163-2.723.163v1c1.371 0 2.316-.012 2.99-.2.358-.099.66-.252.92-.485.255-.229.447-.514.619-.84l-.885-.466Zm-4.143 1.49v.315h1v-.314h-1Zm.5.815c.352 0 .552.059.645.112a.224.224 0 0 1 .05.037h-.001V3.22v.003a.09.09 0 0 1 0 .01h1c0-.408-.22-.728-.555-.919-.307-.175-.705-.242-1.139-.242v1Zm.695.16c0 .21-.047.529-.223 1.029l.943.333c.2-.57.28-1.005.28-1.362h-1Zm-.23 1.049c-1.901 6.204-6.679 14.981-6.79 15.203l.895.447.016-.031.048-.09a125.884 125.884 0 0 0 .768-1.46c.496-.955 1.168-2.277 1.897-3.79 1.456-3.019 3.152-6.82 4.122-9.986l-.956-.293Zm-6.843 15.427v.692h1v-.692h-1Zm.5 1.192h9.493v-1h-9.493v1Zm8.993-.5v2.232h1V20.4h-1Zm0 2.232c0 .438-.015.741-.054.958-.038.212-.091.286-.125.318-.034.034-.113.086-.333.123-.222.038-.529.05-.968.05v1c.44 0 .821-.01 1.135-.064.317-.053.623-.158.863-.392.242-.234.354-.538.412-.856.057-.314.07-.695.07-1.137h-1Zm-1.48 1.45H72.11v1h1.446v-1Zm-1.946.5v.282h1v-.283h-1Zm.5.782h8.14v-1h-8.14v1Zm8.64-.5v-.283h-1v.283h1Zm-.5-.783h-.534v1h.535v-1Zm-.534 0c-.44 0-.744-.012-.963-.05-.215-.036-.287-.087-.318-.117-.03-.03-.08-.103-.118-.319-.037-.219-.05-.523-.05-.963h-1c0 .44.012.82.065 1.131.053.315.16.62.396.857.237.238.542.344.857.397.311.053.691.064 1.131.064v-1Zm-1.448-1.449V20.4h-1v2.232h1Zm-.5-1.732h1.98v-1h-1.98v1Zm2.48-.5v-1.1h-1v1.1h1Zm-.5-1.6h-1.98v1h1.98v-1Zm-1.48.5v-7.547h-1V19.3h1Zm-.5-8.047h-2.232v1h2.231v-1Zm-2.732.5V19.3h1v-7.546h-1Zm.5 7.046h-8.613v1h8.613v-1Zm8.904 6.565h10.844v-1H84.441v1Zm11.344-.5v-.283h-1v.283h1Zm-.5-.783H92.96v1h2.326v-1Zm-2.326 0c-.377 0-.632-.01-.813-.04-.178-.03-.222-.07-.232-.08-.01-.01-.05-.055-.08-.232-.03-.181-.04-.436-.04-.814h-1c0 .377.008.707.054.98.047.277.141.555.359.773.218.218.496.312.772.358.273.046.603.055.98.055v-1Zm-1.166-1.166v-9.181h-1v9.181h1Zm-.056-8.951L96.39 4.97l-.888-.46-4.652 8.993.888.46Zm4.654-8.995c.417-.819.688-1.315.95-1.617a1.02 1.02 0 0 1 .327-.268.863.863 0 0 1 .383-.075v-1c-.288 0-.558.05-.814.172a2.01 2.01 0 0 0-.652.515c-.358.414-.685 1.033-1.085 1.819l.89.454Zm1.66-1.96h.535v-1h-.535v1Zm1.035-.5v-.251h-1v.251h1Zm-.5-.751h-6.067v1h6.067v-1Zm-6.567.5v.251h1v-.251h-1Zm.5.751h1.886v-1H92.52v1Zm1.886 0c.436 0 .64.087.724.15.06.046.096.105.096.23h1c0-.377-.137-.758-.493-1.027-.332-.25-.788-.353-1.327-.353v1Zm.82.38c0 .28-.135.657-.387 1.16l.895.448c.25-.503.492-1.07.492-1.607h-1Zm-.384 1.154-3.772 7.295.888.46 3.772-7.295-.888-.46Zm-3.775 7.301a9.748 9.748 0 0 0-.266.582c-.075.18-.162.405-.188.566l.986.164c0 .002 0-.006.007-.029a4.472 4.472 0 0 1 .118-.317c.075-.178.164-.372.238-.519l-.895-.447Zm.039.73h-.22v1h.22v-1Zm.273.418a3.156 3.156 0 0 0-.188-.575 5.919 5.919 0 0 0-.277-.592l-.874.485a4.97 4.97 0 0 1 .344.813c.007.024.009.034.008.033l.987-.165Zm-.46-1.157-4.054-7.734-.886.464 4.055 7.735.886-.465Zm-4.056-7.737c-.25-.468-.482-.894-.709-1.224-.215-.313-.485-.631-.84-.769l-.36.934c.052.02.175.11.377.402.19.276.397.652.65 1.127l.882-.47Zm-1.23-1.526V2.51h-1v.063h1Zm-.5.437h1.95v-1h-1.95v1Zm2.45-.5v-.251h-1v.251h1Zm-.5-.751H81.14v1h5.94v-1Zm-6.441.5v.251h1v-.251h-1Zm.5.751h.66v-1h-.66v1Zm.66 0c.275 0 .475.096.713.38.267.318.531.811.918 1.552l.887-.462c-.368-.705-.686-1.313-1.04-1.733-.382-.455-.843-.737-1.478-.737v1Zm1.63 1.932 4.936 9.495.887-.461-4.935-9.495-.887.46Zm4.88 9.265v8.709h1v-8.71h-1Zm0 8.709c0 .378-.011.633-.042.814-.03.177-.07.222-.08.232-.01.01-.054.05-.231.08-.181.03-.436.04-.814.04v1c.377 0 .708-.009.98-.055.277-.046.555-.14.773-.358.218-.218.311-.496.358-.773.046-.273.055-.603.055-.98h-1Zm-1.167 1.166h-2.703v1h2.703v-1Zm-3.203.5v.283h1v-.283h-1ZM141 23.798h-.534v1H141v-1Zm-.534 0c-.378 0-.635-.01-.82-.04-.181-.031-.232-.072-.247-.086-.013-.013-.054-.059-.086-.232-.032-.18-.045-.432-.045-.808h-1c0 .379.011.711.061.986.051.28.152.557.375.773.221.213.5.306.778.352.275.046.606.055.984.055v-1Zm-1.198-1.166V4.05h-1v18.582h1Zm0-18.582c0-.547.031-1.053.119-1.584l-.986-.165c-.1.6-.133 1.163-.133 1.749h1Zm.126-1.667v-.251h-1v.251h1Zm-.513-.75-4.872.125.026 1 4.872-.126-.026-1Zm-5.359.625v.283h1v-.283h-1Zm.5.783h.534v-1h-.534v1Zm.534 0c.378 0 .635.01.82.041.181.03.232.071.247.085.013.013.054.059.086.232.032.18.045.432.045.808h1c0-.379-.011-.711-.061-.986-.051-.28-.152-.557-.375-.773-.221-.213-.5-.306-.778-.352a6.26 6.26 0 0 0-.984-.055v1Zm1.198 1.166v12.325h1V4.207h-1Zm0 12.325c0 2.334-.55 4.229-1.461 5.526-.903 1.284-2.164 1.992-3.666 1.992v1c1.861 0 3.414-.895 4.484-2.417 1.061-1.51 1.643-3.624 1.643-6.1h-1Zm-5.127 7.518c-.753 0-1.371-.31-1.818-.929-.46-.636-.762-1.637-.762-3.036h-1c0 1.525.327 2.757.951 3.622.637.882 1.559 1.343 2.629 1.343v-1ZM127.547.877h-.252v1h.252v-1Zm-.752.5v.126h1v-.126h-1Zm0 .126c0 .375-.215.651-.68.861-.476.215-1.119.305-1.711.305v1c.665 0 1.467-.098 2.123-.394.667-.3 1.268-.858 1.268-1.772h-1Zm-2.391 1.166h-1.792v1h1.792v-1Zm-2.292.5v.283h1V3.17h-1Zm.5.783h1.477v-1h-1.477v1Zm1.477 0c.203 0 .298.057.342.102.044.044.101.139.101.342h1c0-.395-.116-.771-.394-1.05-.278-.278-.654-.394-1.049-.394v1Zm.443.444v15.972h1V4.396h-1Zm0 15.972c0 1.671.611 3.004 1.677 3.91 1.056.898 2.51 1.338 4.135 1.338v-1c-1.454 0-2.657-.394-3.487-1.1-.819-.696-1.325-1.738-1.325-3.148h-1Zm5.812 5.248c1.587 0 3.113-.509 4.33-1.644 1.213-1.133 2.078-2.85 2.42-5.198l-.989-.144c-.318 2.18-1.104 3.669-2.114 4.611-1.007.94-2.279 1.375-3.647 1.375v1Zm6.255-6.414h.283v-1h-.283v1Zm-.217-.5v4.402h1v-4.402h-1Zm0 4.402c0 .547-.03 1.119-.12 1.718l.989.148c.099-.659.131-1.282.131-1.866h-1Zm-.125 1.792v.251h1v-.251h-1Zm.6.741c1.214-.249 2.693-.495 4.164-.556l-.042-1c-1.547.065-3.085.323-4.323.576l.201.98Zm4.643-1.056v-.283h-1v.283h1ZM121.735 13.73c0 5.874-4.761 10.635-10.632 10.635v1c6.424 0 11.632-5.21 11.632-11.635h-1Zm-10.632 10.635c-5.872 0-10.633-4.761-10.633-10.635h-1c0 6.426 5.208 11.635 11.633 11.635v-1ZM100.47 13.73c0-5.874 4.761-10.636 10.633-10.636v-1c-6.425 0-11.633 5.21-11.633 11.636h1Zm10.633-10.636c5.871 0 10.632 4.762 10.632 10.636h1c0-6.426-5.208-11.636-11.632-11.636v1Zm-.5 21.771V36h1V24.864h-1Zm-5.685 6.688h12.369v-1h-12.369v1ZM35.499 20.085V1.377h-1v18.708h1Zm92.548 0V1.377h-1v18.708h1Z" fill="#fff"/></symbol><symbol fill="none" viewBox="0 0 34 34" id="plus" xmlns="http://www.w3.org/2000/svg"><path d="M17.285 1.09v31.82M33.195 17H1.375" stroke="currentColor" stroke-linecap="round" stroke-linejoin="round"/></symbol><symbol fill="none" viewBox="0 0 106 18" id="stars_3" xmlns="http://www.w3.org/2000/svg"><path d="m9 0 2.02 6.219h6.54l-5.29 3.843 2.02 6.22L9 12.437 3.71 16.28l2.02-6.219L.44 6.22h6.54L9 0ZM31 0l2.02 6.219h6.54l-5.29 3.843 2.02 6.22L31 12.437l-5.29 3.843 2.02-6.219-5.29-3.843h6.54L31 0ZM53 0l2.02 6.219h6.54l-5.29 3.843 2.02 6.22L53 12.437l-5.29 3.843 2.02-6.219-5.29-3.843h6.54L53 0Z" fill="#80D1FF"/><path d="m75 1.618 1.545 4.755.112.346h5.364l-4.046 2.939-.293.213.112.346 1.545 4.755-4.045-2.939L75 11.82l-.294.213-4.045 2.94 1.545-4.756.112-.346-.293-.213-4.046-2.94h5.364l.112-.345L75 1.618ZM97 1.618l1.545 4.755.112.346h5.364l-4.046 2.939-.293.213.112.346 1.545 4.755-4.045-2.939L97 11.82l-.294.213-4.045 2.94 1.545-4.756.112-.346-.293-.213-4.046-2.94h5.364l.112-.345L97 1.618Z" stroke="#80D1FF"/></symbol><symbol fill="none" viewBox="0 0 106 18" id="stars_5" xmlns="http://www.w3.org/2000/svg"><path d="m9 0 2.02 6.219h6.54l-5.29 3.843 2.02 6.22L9 12.437 3.71 16.28l2.02-6.219L.44 6.22h6.54L9 0ZM31 0l2.02 6.219h6.54l-5.29 3.843 2.02 6.22L31 12.437l-5.29 3.843 2.02-6.219-5.29-3.843h6.54L31 0ZM53 0l2.02 6.219h6.54l-5.29 3.843 2.02 6.22L53 12.437l-5.29 3.843 2.02-6.219-5.29-3.843h6.54L53 0ZM75 0l2.02 6.219h6.54l-5.29 3.843 2.02 6.22L75 12.437l-5.29 3.843 2.02-6.219-5.29-3.843h6.54L75 0ZM97 0l2.02 6.219h6.54l-5.291 3.843 2.021 6.22L97 12.437l-5.29 3.843 2.02-6.219-5.29-3.843h6.54L97 0Z" fill="#80D1FF"/></symbol><symbol fill="none" viewBox="0 0 86 38" id="swiper_left" xmlns="http://www.w3.org/2000/svg"><circle r="18.5" transform="matrix(-1 0 0 1 19 19)" stroke="currentColor"/><path d="M81 19H13M22 10c-1.948 4.491-3.869 6.49-9 9 5.202 2.575 7.143 4.591 9 9" stroke="currentColor" stroke-linecap="round" stroke-linejoin="round"/></symbol><symbol fill="none" viewBox="0 0 86 38" id="swiper_right" xmlns="http://www.w3.org/2000/svg"><circle cx="67" cy="19" r="18.5" stroke="currentColor"/><path d="M5 19h68M64 10c1.948 4.491 3.869 6.49 9 9-5.202 2.575-7.143 4.591-9 9" stroke="currentColor" stroke-linecap="round" stroke-linejoin="round"/></symbol><symbol fill="none" viewBox="0 0 13 8" id="vk" xmlns="http://www.w3.org/2000/svg"><path d="M12.329 6.248c-.382-.457-.832-.848-1.258-1.263-.384-.374-.408-.591-.1-1.023.338-.471.7-.924 1.04-1.393.317-.438.641-.876.808-1.4.106-.334.013-.482-.33-.54a1.06 1.06 0 0 0-.18-.011L10.274.616c-.251-.004-.39.105-.478.327-.12.3-.243.599-.385.888-.324.656-.685 1.29-1.191 1.827-.112.118-.235.268-.422.206-.233-.085-.302-.469-.298-.599L7.5.921C7.454.586 7.38.436 7.047.37H4.934c-.282 0-.424.11-.574.285-.087.102-.113.168.065.202.35.066.548.293.6.644.085.561.079 1.125.03 1.688a1.568 1.568 0 0 1-.107.482c-.103.242-.268.29-.484.142-.196-.134-.334-.324-.47-.514a11.334 11.334 0 0 1-1.24-2.297c-.095-.234-.26-.376-.508-.38-.61-.01-1.22-.011-1.83 0-.368.008-.477.186-.328.518.665 1.477 1.405 2.912 2.37 4.22.496.671 1.065 1.263 1.8 1.683.834.476 1.732.62 2.677.575.442-.02.575-.135.595-.576.014-.301.048-.6.197-.872.146-.265.368-.316.623-.15.127.082.235.188.336.299.25.272.49.552.748.815.324.33.708.524 1.191.484h1.87c.3-.019.457-.388.284-.723a3.593 3.593 0 0 0-.45-.648Z" fill="#fff"/></symbol></svg>